<svg viewBox="0 0 1024 1024" class="icon" version="1.1" xmlns="http://www.w3.org/2000/svg" fill="#000000">
  <g id="SVGRepo_bgCarrier" stroke-width="0"></g>
  <g id="SVGRepo_tracerCarrier" stroke-linecap="round" stroke-linejoin="round"></g>
  <g id="SVGRepo_iconCarrier">
    <path
      d="M357.901838 771.144963h286.820639a19.498771 19.498771 0 0 1 19.498771 19.498772v178.004914a19.498771 19.498771 0 0 1-10.692875 17.611793 339.027027 339.027027 0 0 1-152.216216 37.739558 339.027027 339.027027 0 0 1-152.216216-37.739558 19.498771 19.498771 0 0 1-10.692875-17.611793v-178.004914a19.498771 19.498771 0 0 1 19.498772-19.498772z"
      fill="#656D78"></path>
    <path
      d="M501.312157 1024a340.914005 340.914005 0 0 1-152.216216-37.739558 19.498771 19.498771 0 0 1-10.692875-17.611793v-178.004914a19.498771 19.498771 0 0 1 19.498772-19.498772h286.820639a19.498771 19.498771 0 0 1 19.498771 19.498772v178.004914a19.498771 19.498771 0 0 1-10.692875 17.611793 340.914005 340.914005 0 0 1-152.216216 37.739558z m-131.459459-62.899263a293.739558 293.739558 0 0 0 262.918919 0v-158.506142H369.852698z"
      fill="#656D78"></path>
    <path
      d="M154.737219 467.341523a354.751843 352.235872 90 1 0 704.471744 0 354.751843 352.235872 90 1 0-704.471744 0Z"
      fill="#ED5564"></path>
    <path
      d="M506.973091 821.464373a354.751843 354.751843 0 1 1 352.235872-354.751842 354.12285 354.12285 0 0 1-352.235872 354.751842z m0-677.425061a323.302211 323.302211 0 1 0 320.786241 323.302211 322.673219 322.673219 0 0 0-320.786241-323.302211z"
      fill="#ED5564"></path>
    <path
      d="M367.96572 861.719902a15.724816 15.724816 0 0 1 0-31.449632h267.95086a15.724816 15.724816 0 0 1 0 31.449632H367.96572z"
      fill="#434A54"></path>
    <path
      d="M545.970634 938.457002H366.707735a15.724816 15.724816 0 0 1 0-31.449631h179.262899a15.724816 15.724816 0 0 1 0 31.449631z"
      fill="#434A54"></path>
    <path
      d="M418.28513 288.707617L496.909209 440.29484 576.16228 288.707617h66.044226L544.083656 465.454545h67.302211v31.449632H525.84287v43.400491h85.542997v31.449632H525.84287v76.108108H469.233533V571.7543H383.061543v-31.449632H469.233533v-42.771498H383.061543V465.454545h66.673219L351.611912 288.707617z"
      fill="#FFCE54"></path>
    <path
      d="M787.503803 182.407862a15.724816 15.724816 0 0 1-10.692874-4.402948 15.724816 15.724816 0 0 1 0-22.014742L846.629111 82.398034a15.724816 15.724816 0 0 1 22.643734 22.014742l-70.447174 73.592138a15.724816 15.724816 0 0 1-11.321868 4.402948z"
      fill="#E9605D"></path>
    <path
      d="M242.167194 182.407862a15.724816 15.724816 0 0 1-11.321867-5.031941L159.76916 104.412776a15.724816 15.724816 0 1 1 22.643734-22.014742l71.076167 73.592138a15.724816 15.724816 0 0 1-11.321867 26.41769z"
      fill="#E9605D"></path>
    <path
      d="M504.45712 111.331695a15.724816 15.724816 0 0 1-15.724815-15.724815V15.724816a15.724816 15.724816 0 0 1 31.449631 0v79.882064a15.724816 15.724816 0 0 1-15.724816 15.724815z"
      fill="#E9605D"></path>
  </g>
</svg>
