<svg height="200px" width="200px" version="1.1" id="Layer_1" xmlns="http://www.w3.org/2000/svg"
     xmlns:xlink="http://www.w3.org/1999/xlink" viewBox="0 0 503.467 503.467" xml:space="preserve" fill="#000000"><g id="SVGRepo_bgCarrier" stroke-width="0"></g>
  <g id="SVGRepo_tracerCarrier" stroke-linecap="round" stroke-linejoin="round"></g>
  <g id="SVGRepo_iconCarrier"> <g transform="translate(11 1)"> <path style="fill:#E4F2DE;"
                                                                     d="M402.867,164.973c0,68.267-25.6,119.467-85.333,162.133c0,0-17.067,8.533-17.067,34.133H181 c0-25.6-17.067-34.133-17.067-34.133C104.2,284.44,78.6,233.24,78.6,164.973c0-89.6,72.533-162.133,162.133-162.133 S402.867,75.373,402.867,164.973L402.867,164.973z"></path>
    <path style="fill:#AAB1BA;"
          d="M181,395.373c-9.387,0-17.067-7.68-17.067-17.067s7.68-17.067,17.067-17.067h119.467 c9.387,0,17.067,7.68,17.067,17.067s-7.68,17.067-17.067,17.067c9.387,0,17.067,7.68,17.067,17.067s-7.68,17.067-17.067,17.067 c9.387,0,17.067,7.68,17.067,17.067s-7.68,17.067-17.067,17.067h-34.133h-51.2H181c-9.387,0-17.067-7.68-17.067-17.067 s7.68-17.067,17.067-17.067c-9.387,0-17.067-7.68-17.067-17.067S171.613,395.373,181,395.373z M266.333,463.64v17.067 c0,9.387-7.68,17.067-17.067,17.067H232.2c-9.387,0-17.067-7.68-17.067-17.067V463.64H266.333z"></path>
    <path style="fill:#50DD8E;"
          d="M240.733,267.373l-29.867-29.867c0,0-29.867-29.013-29.867-68.267s29.867-68.267,29.867-68.267 l29.867-29.867l29.867,29.867c0,0,29.867,29.867,29.867,68.267s-29.013,68.267-29.013,68.267L240.733,267.373z"></path> </g>
    <path style="fill:#51565F;"
          d="M260.267,503.04H243.2c-11.947,0-21.333-9.387-21.333-21.333V464.64c0-2.56,1.707-4.267,4.267-4.267 h85.333c7.68,0,12.8-5.12,12.8-12.8c0-6.827-5.973-12.8-12.8-12.8c-2.56,0-4.267-1.707-4.267-4.267c0-2.56,1.707-4.267,4.267-4.267 c6.827,0,12.8-5.973,12.8-12.8s-5.973-12.8-12.8-12.8c-2.56,0-4.267-1.707-4.267-4.267c0-2.56,1.707-4.267,4.267-4.267 c6.827,0,12.8-5.973,12.8-12.8c0-6.827-5.973-12.8-12.8-12.8c-2.56,0-4.267-1.707-4.267-4.267c0-28.16,18.773-37.547,19.627-37.547 c57.173-40.96,82.773-89.6,82.773-158.72c0-87.04-70.827-157.867-157.867-157.867S93.867,78.933,93.867,165.973 c0,68.267,25.6,117.76,83.627,158.72c0,0,17.067,8.533,18.773,33.28h81.067c2.56,0,4.267,1.707,4.267,4.267 s-1.707,4.267-4.267,4.267H192c-6.827,0-12.8,5.973-12.8,12.8c0,6.827,5.973,12.8,12.8,12.8h85.333c2.56,0,4.267,1.707,4.267,4.267 c0,2.56-1.707,4.267-4.267,4.267H192c-6.827,0-12.8,5.973-12.8,12.8s5.973,12.8,12.8,12.8h85.333c2.56,0,4.267,1.707,4.267,4.267 c0,2.56-1.707,4.267-4.267,4.267H192c-6.827,0-12.8,5.973-12.8,12.8s5.973,12.8,12.8,12.8c2.56,0,4.267,1.707,4.267,4.267 c0,2.56-1.707,4.267-4.267,4.267c-11.947,0-21.333-9.387-21.333-21.333c0-6.827,3.413-12.8,8.533-17.067 c-5.12-4.267-8.533-10.24-8.533-17.067s3.413-12.8,8.533-17.067c-5.12-4.267-8.533-10.24-8.533-17.067 c0-10.24,7.68-18.773,17.067-20.48c-1.707-19.627-13.653-26.453-14.507-26.453c-60.587-43.52-87.893-94.72-87.893-165.547 c0-92.16,74.24-166.4,166.4-166.4s166.4,74.24,166.4,166.4c0,71.68-26.453,122.88-87.04,165.547 c-0.853,0.853-13.653,7.68-15.36,26.453c9.387,1.707,17.067,10.24,17.067,20.48c0,6.827-3.413,12.8-8.533,17.067 c5.12,4.267,8.533,10.24,8.533,17.067s-3.413,12.8-8.533,17.067c5.12,4.267,8.533,10.24,8.533,17.067 c0,11.947-9.387,21.333-21.333,21.333H281.6v12.8C281.6,493.653,272.213,503.04,260.267,503.04z M230.4,468.907v12.8 c0,6.827,5.973,12.8,12.8,12.8h17.067c6.827,0,12.8-5.973,12.8-12.8v-12.8H230.4z M251.733,332.373c-2.56,0-4.267-1.707-4.267-4.267 V270.08l-28.16-29.013c-0.853-0.853-31.573-30.72-31.573-70.827c0-40.107,29.867-69.973,31.573-71.68l29.867-29.867 c1.707-1.707,4.267-1.707,5.973,0l29.867,29.867c0.853,0.853,30.72,30.72,30.72,70.827c0,40.107-29.013,69.973-29.867,70.827 L256,269.227v58.027C256,330.667,254.293,332.373,251.733,332.373z M256,123.307v134.827l23.893-23.04 c0,0,27.307-28.16,27.307-64.853l0,0c0-36.693-28.16-64.853-28.16-64.853L251.733,78.08l-26.453,26.453 c0,0-29.013,29.013-29.013,65.707c0,36.693,28.16,64.853,29.013,64.853l22.187,23.04V123.307c0-2.56,1.707-4.267,4.267-4.267 C254.293,119.04,256,120.747,256,123.307z M46.933,170.24H4.267c-2.56,0-4.267-1.707-4.267-4.267c0-2.56,1.707-4.267,4.267-4.267 h42.667c2.56,0,4.267,1.707,4.267,4.267C51.2,168.533,49.493,170.24,46.933,170.24z M499.2,170.24h-42.667 c-2.56,0-4.267-1.707-4.267-4.267c0-2.56,1.707-4.267,4.267-4.267H499.2c2.56,0,4.267,1.707,4.267,4.267 C503.467,168.533,501.76,170.24,499.2,170.24z M58.88,100.267c-0.853,0-0.853,0-1.707,0L17.066,85.76 c-1.707-0.853-2.56-2.56-2.56-4.267c0-0.853,0-0.853,0-1.707c0.853-2.56,3.413-3.413,5.12-2.56l40.107,14.507 c1.707,0.853,2.56,2.56,2.56,4.267c0,0.853,0,0.853,0,1.707C62.293,99.413,60.587,100.267,58.88,100.267z M444.587,100.267 c-1.707,0-3.413-0.853-4.267-2.56c0-0.853,0-0.853,0-1.707c0-1.707,0.853-3.413,2.56-4.267l40.107-14.507 c2.56-0.853,4.267,0,5.12,2.56c0,0.853,0,0.853,0,1.707c0,1.707-0.853,3.413-2.56,4.267l-40.107,14.507 C445.44,100.267,444.587,100.267,444.587,100.267z M408.747,38.827c-0.853,0-2.56-0.853-3.413-1.707 c-0.853-0.853-0.853-1.707-0.853-2.56c0-0.853,0.853-2.56,1.707-3.413L438.613,3.84c1.707-1.707,4.267-1.707,5.973,0.853 c0.853,0.853,0.853,1.707,0.853,2.56c0,0.853-0.853,2.56-1.707,3.413l-32.427,27.307C410.453,37.973,409.6,38.827,408.747,38.827z M94.72,38.827c-0.853,0-1.707,0-2.56-0.853L59.734,10.667c-0.853-0.853-1.707-1.707-1.707-3.413c0-0.853,0-1.707,0.853-2.56 c1.707-1.707,4.267-1.707,5.973-0.853L97.28,31.147c0.853,0.853,1.707,1.707,1.707,3.413c0,0.853,0,1.707-0.853,2.56 C97.28,37.973,96.427,38.827,94.72,38.827z"></path> </g></svg>
