<svg version="1.1" id="Layer_1" xmlns="http://www.w3.org/2000/svg" xmlns:xlink="http://www.w3.org/1999/xlink"
     viewBox="0 0 512.001 512.001" xml:space="preserve" fill="#000000"><g id="SVGRepo_bgCarrier" stroke-width="0"></g>
  <g id="SVGRepo_tracerCarrier" stroke-linecap="round" stroke-linejoin="round"></g>
  <g id="SVGRepo_iconCarrier"> <path style="fill:#FFCD60;"
                                     d="M427.906,8.075H397.38v251.587l30.526-21.804c5.189,0,9.387-4.197,9.387-9.387V17.451 C437.292,12.272,433.096,8.075,427.906,8.075z"></path>
    <path style="fill:#FFDB8A;"
          d="M397.38,8.075H66.109c-5.189,0-9.387,4.197-9.387,9.376v32.706L12.405,72.321l44.317,22.164v131.806 c0,5.189,4.197,9.387,9.387,9.387H397.38c5.189,0,9.387-4.197,9.387-9.387V17.451C406.766,12.272,402.57,8.075,397.38,8.075z"></path>
    <path style="fill:#FF754F;" d="M394,474.979l13.922,28.891h21.804c13.064,0,28.444-16.564,28.444-28.891H394z"></path>
    <path style="fill:#FF9269;"
          d="M434.893,437.312c11.164,0.872,24.25,15.288,23.276,37.667c-0.165,3.78-13.202,6.879-28.444,7.086 h-37.943v-44.753H434.893z"></path>
    <path style="fill:#E2D8BD;" d="M409.013,503.87c-0.603-0.02-1.21,0-1.821,0H409.013z"></path>
    <path style="fill:#FF754F;"
          d="M401.521,273.844v27.999h72.172c11.872,0.044,26.994-19.081,26.994-35.041L401.521,273.844z"></path>
    <path style="fill:#FF9269;"
          d="M470.422,235.678c13.432,0,30.264,15.163,30.264,31.123c0,3.892-12.941,7.054-28.084,7.043h-72.172 l18.393-38.166L470.422,235.678L470.422,235.678z"></path>
    <path style="fill:#FF754F;"
          d="M391.783,343.271v25.762h63.376c11.872,0.044,32.445-16.844,32.445-32.804L391.783,343.271z"></path>
    <path style="fill:#FF9269;"
          d="M459.52,301.843c11.872,1.134,28.084,18.424,28.084,34.385c0,3.892-12.941,7.054-24.813,7.043 h-71.007v-41.428H459.52z"></path>
    <path style="fill:#FF754F;"
          d="M391.783,412.641v24.671h44.844c18.882,0,35.715-15.754,35.715-31.714L391.783,412.641z"></path>
    <path style="fill:#FF9269;"
          d="M447.529,369.032c11.872,0.044,24.813,20.605,24.813,36.566c0,3.892-12.941,7.054-24.813,7.043 h-55.746v-43.608H447.529z"></path>
    <polygon style="fill:#FF754F;" points="416.643,482.065 416.643,503.869 177.964,503.924 159.016,449.413 "></polygon>
    <path style="fill:#FF9269;"
          d="M425.527,235.678v246.387H146.347l32.706-246.333h11.458c69.577,0,125.418-56.407,125.418-125.984 c0-18.599,15.078-33.666,33.677-33.666c18.588,0,33.666,15.067,33.666,33.666c0,45.985-11.295,90.934-34.091,125.93H425.527z"></path>
    <rect x="124.808" y="235.736" style="fill:#FF0F47;" width="65.144" height="268.191"></rect>
    <path
      d="M92.359,226.297l-26.189-0.079c-0.664,0-1.204-0.541-1.204-1.206V94.582c0-3.097-1.75-5.929-4.52-7.313L30.754,72.423 l29.692-14.845c2.769-1.385,4.52-4.216,4.52-7.313V17.558c0-0.664,0.54-1.204,1.204-1.204h361.676c0.664,0,1.205,0.541,1.205,1.204 v184.209c0,4.516,3.66,8.177,8.177,8.177c4.516,0,8.177-3.661,8.177-8.177V17.557C445.403,7.876,437.526,0,427.845,0H66.17 c-9.681,0-17.557,7.877-17.557,17.557V45.21l-39.799,19.9c-2.769,1.385-4.519,4.216-4.519,7.313s1.75,5.929,4.519,7.313l39.799,19.9 v125.377c0,9.682,7.877,17.559,17.533,17.559l26.164,0.078c0.009,0,0.016,0,0.024,0c4.505,0,8.162-3.645,8.177-8.151 C100.524,229.982,96.873,226.31,92.359,226.297z"></path>
    <path
      d="M507.706,268.142c0-23.074-18.772-41.845-41.845-41.845l-102.364,0.001c18.058-33.202,27.885-74.435,27.885-117.806 c0-23.074-18.772-41.845-41.845-41.845c-23.073,0-41.845,18.771-41.845,41.845c0,64.958-52.847,117.805-117.805,117.805h-64.848 c-4.517,0-8.177,3.661-8.177,8.177v269.35c0,4.516,3.66,8.177,8.177,8.177h64.848c4.517,0,8.177-3.661,8.177-8.177v-261.43 c70.181-4.241,125.981-62.673,125.981-133.902c0-14.057,11.435-25.492,25.492-25.492c14.056,0,25.492,11.435,25.492,25.492 c0,45.928-11.636,89.085-32.763,121.52c-1.638,2.514-1.767,5.722-0.338,8.36c1.43,2.637,4.189,4.28,7.189,4.28l116.743-0.002 c14.056,0,25.492,11.436,25.492,25.492c0,14.057-11.435,25.492-25.492,25.492h-13.79h-27.581c-4.517,0-8.177,3.661-8.177,8.177 c0,4.516,3.66,8.177,8.177,8.177h27.581c14.056,0,25.492,11.435,25.492,25.492c0,14.057-11.435,25.492-25.492,25.492h-13.79h-13.79 c-4.517,0-8.177,3.661-8.177,8.177c0,4.516,3.66,8.177,8.177,8.177h13.79c14.056,0,25.492,11.435,25.492,25.492 c0,14.056-11.435,25.492-25.492,25.492h-13.79c-4.517,0-8.177,3.661-8.177,8.177c0,4.516,3.66,8.177,8.177,8.177 c14.056,0,25.492,11.435,25.492,25.492c0,14.056-11.435,25.492-25.492,25.492H222.595c-4.517,0-8.177,3.661-8.177,8.177 c0,4.516,3.66,8.177,8.177,8.177h201.895c23.073,0,41.845-18.771,41.845-41.845c0-11.183-4.41-21.356-11.582-28.872 c14.908-6.408,25.372-21.238,25.372-38.467c0-11.183-4.41-21.356-11.582-28.872c14.908-6.408,25.372-21.238,25.372-38.466 c0-11.183-4.41-21.356-11.582-28.871C497.241,300.2,507.706,285.37,507.706,268.142z M181.712,495.647h-48.495V242.65h48.495 V495.647z"></path>
    <path
      d="M399.96,471.117V267.181c0-4.516-3.66-8.177-8.177-8.177c-4.517,0-8.177,3.661-8.177,8.177v203.935 c0,4.516,3.66,8.177,8.177,8.177C396.3,479.294,399.96,475.633,399.96,471.117z"></path> </g></svg>
